inDegrees=yes
name=ik_S41_A01_T02
DataType=double
version=3
OpenSimVersion=4.3-2021-08-27-4bc7ad9
endheader
time	pelvis_tilt	pelvis_list	pelvis_rotation	pelvis_tx	pelvis_ty	pelvis_tz	hip_flexion_r	hip_adduction_r	hip_rotation_r	knee_angle_r	knee_angle_r_beta	ankle_angle_r	subtalar_angle_r	mtp_angle_r	hip_flexion_l	hip_adduction_l	hip_rotation_l	knee_angle_l	knee_angle_l_beta	ankle_angle_l	subtalar_angle_l	mtp_angle_l	lumbar_extension	lumbar_bending	lumbar_rotation	arm_flex_r	arm_add_r	arm_rot_r	elbow_flex_r	pro_sup_r	wrist_flex_r	wrist_dev_r	arm_flex_l	arm_add_l	arm_rot_l	elbow_flex_l	pro_sup_l	wrist_flex_l	wrist_dev_l
18.53999999999969	0.06970112445293385	-1.436490908999202	32.51638366076532	0	0.9399999999999999	0	21.94951690724588	0.7916932876433175	6.683246974696777	20.46169605552265	0.3571239667112067	0	0	0	2.741070506561285	8.246512069880964	19.10984481339078	12.25421134344443	0.213876335178343	0	0	0	0	0	0	41.56382717389972	-41.56382717389965	4.941565546786275	84.21194512433448	85.05843472522433	0	0	41.56382717389972	-41.56382717389965	4.941565546786275	84.21194512433448	85.05843472521379	0	0
18.55999999999969	0.07351796722501901	-1.484358844326445	34.30316836869751	0	0.9399999999999999	0	21.6945559729163	0.7125334123343601	8.385893616161345	19.82680459390147	0.3460430203131178	0	0	0	2.944016163271997	8.125703533520596	15.61475095660476	12.33816269910195	0.2153415627460794	0	0	0	0	0	0	41.57368694215373	-41.57368694215366	4.941859121833675	84.21590447876325	85.05814115018907	0	0	41.57368694215373	-41.57368694215366	4.941859121833675	84.21590447876325	85.05814115017861	0	0
18.57999999999969	0.03320805731335895	-1.681623135605865	39.62719508883731	0	0.9399999999999999	0	21.45937775369293	-0.03027184654793892	6.358679168245769	21.63769097640777	0.3776489500673822	0	0	0	2.563499673343808	8.075162718351748	14.72313053985534	12.16921295983949	0.2123928335255636	0	0	0	0	0	0	41.5890817627017	-41.58908176270162	4.942311378763437	84.22200390692831	85.05768889327798	0	0	41.5890817627017	-41.58908176270162	4.942311378763437	84.22200390692831	85.05768889326758	0	0
18.59999999999969	0.3363826799690127	-1.521254122445117	43.20239680079144	0	0.9399999999999999	0	20.50347583075158	-0.4188182674884365	4.596629630592593	21.47626792839148	0.3748315863908931	0	0	0	1.461229280242824	7.848124007214852	10.43678924974681	9.748002018845037	0.1701347307199002	0	0	0	0	0	0	41.60806693484245	-41.60806693484239	4.942874294011937	84.22959575714476	85.05712597805278	0	0	41.60806693484245	-41.60806693484239	4.942874294011937	84.22959575714476	85.05712597804245	0	0
18.61999999999969	0.7898568441549202	-1.229232812731885	46.58348515523389	0	0.9399999999999999	0	19.56076989992988	-0.7618519437393361	3.397249752668721	22.34788298510038	0.3900441389404206	0	0	0	0.5959829258759232	7.911217567467926	9.003323742658525	10.92562831910585	0.1906881870175307	0	0	0	0	0	0	41.61741824516807	-41.617418245168	4.943148025914515	84.23328747808426	85.0568522461615	0	0	41.61741824516807	-41.617418245168	4.943148025914515	84.23328747808426	85.05685224615121	0	0
18.63999999999969	0.9350958406302052	-1.142836388455627	48.0978074265257	0	0.9399999999999999	0	19.10490911442805	-0.7779458454353571	3.997043324158344	22.26481620401482	0.3885943501114441	0	0	0	-0.2478265568116414	7.76696051153962	8.37680337247882	7.560558210059291	0.1319566340542237	0	0	0	0	0	0	41.62097818943916	-41.62097818943909	4.943254811515691	84.23472766344921	85.05674546056477	0	0	41.62097818943916	-41.62097818943909	4.943254811515691	84.23472766344921	85.05674546055445	0	0
18.65999999999969	1.163648606509335	-1.287771378813122	52.41498996631421	0	0.9399999999999999	0	19.06530788805016	-1.2517287254204	2.641235828619762	22.73442823540644	0.3967906262662069	0	0	0	-0.5398428651309027	7.888400368342992	4.272164685704392	9.078040897698283	0.1584417032955368	0	0	0	0	0	0	41.63606256081994	-41.63606256081988	4.943699931815162	84.24073084504194	85.05630034028364	0	0	41.63606256081994	-41.63606256081988	4.943699931815162	84.24073084504194	85.05630034027351	0	0
18.67999999999969	1.236718651083663	-1.30894541719689	53.77181691579892	0	0.9399999999999999	0	19.02686951265618	-1.628950031714993	1.50242981296371	23.46767489951796	0.4095881947842178	0	0	0	-0.8171046797017004	7.852646296307417	1.343154080196806	7.750602245270236	0.1352735281924307	0	0	0	0	0	0	41.64446254183716	-41.64446254183709	4.943947513926505	84.2440698970648	85.05605275818247	0	0	41.64446254183716	-41.64446254183709	4.943947513926505	84.2440698970648	85.05605275817241	0	0
18.69999999999969	1.366912045997453	-1.315511195172462	56.48561661114311	0	0.9399999999999999	0	19.440763443225	-1.435623687217206	3.268935762755541	24.48945505935001	0.427421622804841	0	0	0	-1.03883829355867	7.560419199297936	0.9726684035281872	8.013030997415067	0.1398537739692581	0	0	0	0	0	0	41.65224366062699	-41.65224366062692	4.944174959404447	84.24713736818923	85.05582531271394	0	0	41.65224366062699	-41.65224366062692	4.944174959404447	84.24713736818923	85.05582531270393	0	0
18.71999999999969	1.214622168129172	-1.481193696489427	59.278997944272	0	0.9399999999999999	0	19.64916089286976	-2.352935306796251	1.036331298023108	25.66272950995116	0.4478991249973586	0	0	0	-0.9820999060118465	7.416819615014756	1.221052845093167	7.81181676081403	0.1363419230386832	0	0	0	0	0	0	41.66511905998351	-41.66511905998345	4.94454881710725	84.2521794380356	85.05545145502657	0	0	41.66511905998351	-41.66511905998345	4.94454881710725	84.2521794380356	85.05545145501661	0	0
18.73999999999969	1.019187687781552	-1.652746045423316	62.07812981454526	0	0.9399999999999999	0	20.8777591368391	-1.629269206722088	5.424713462405316	27.23980018518026	0.4754242008167567	0	0	0	-0.6983994477694544	7.405137867180429	2.506783182145721	8.069728113392678	0.1408433253194525	0	0	0	0	0	0	41.67457789161078	-41.6745778916107	4.944829552607512	84.25596562178802	85.05517071953787	0	0	41.67457789161078	-41.6745778916107	4.944829552607512	84.25596562178802	85.05517071952795	0	0
18.75999999999969	0.9731115740008945	-1.644675120203858	63.23448877898004	0	0.9399999999999999	0	21.2844443784504	-1.425480147197711	6.489434181337894	28.66867336218777	0.5003627423489694	0	0	0	-0.2730606041171572	7.432889447215564	2.9839666174425	8.654310785433502	0.1510462176966711	0	0	0	0	0	0	41.67527139522554	-41.67527139522547	4.944852733999437	84.25627826813422	85.05514753814697	0	0	41.67527139522554	-41.67527139522547	4.944852733999437	84.25627826813422	85.05514753813708	0	0
18.77999999999969	0.9971719223829185	-1.453758982958308	65.42129614193865	0	0.9399999999999999	0	21.68418580187771	-1.619624761694163	6.687242723141929	29.76873522533753	0.5195624438365559	0	0	0	-0.3248544758509497	7.597629805224313	4.879725428404263	9.004797381104771	0.1571633627752409	0	0	0	0	0	0	41.67679528162063	-41.67679528162056	4.94490359913359	84.25696428356515	85.055096673015	0	0	41.67679528162063	-41.67679528162056	4.94490359913359	84.25696428356515	85.05509667300511	0	0
18.79999999999969	1.150053570512324	-1.14623465604431	69.2240670664614	0	0.9399999999999999	0	22.011600870869	-2.398003851220567	5.708547244604306	31.81894950129434	0.5553454333233939	0	0	0	-0.9786834571712197	7.370108317771308	8.367826837321964	8.913502054432861	0.1555699587331323	0	0	0	0	0	0	41.67857868028821	-41.67857868028815	4.944963047615063	84.25776606187691	85.05503722453604	0	0	41.67857868028821	-41.67857868028815	4.944963047615063	84.25776606187691	85.05503722452615	0	0
18.81999999999969	1.181129020484464	-1.010405875225407	69.7598453402009	0	0.9399999999999999	0	22.47742442712341	-2.10643299716388	6.532871759031843	32.71382983509774	0.5709640415596092	0	0	0	-1.180643585802827	6.91748434337882	8.47411363629689	8.42024507161787	0.1469610003245576	0	0	0	0	0	0	41.67937469944793	-41.67937469944786	4.944989631769854	84.25812460098726	85.05501064038235	0	0	41.67937469944793	-41.67937469944786	4.944989631769854	84.25812460098726	85.05501064037246	0	0
18.83999999999969	1.108209109842006	-1.028421915676282	70.75846630708939	0	0.9399999999999999	0	23.15605180269079	-2.117433191407552	6.661513088299177	33.84231371621338	0.5906598008407614	0	0	0	-1.283838956117367	6.378353642063457	9.046763318963315	7.829289544290956	0.1366468806398436	0	0	0	0	0	0	41.68001202652217	-41.68001202652211	4.945010893276288	84.25841135375094	85.05498937887681	0	0	41.68001202652217	-41.68001202652211	4.945010893276288	84.25841135375094	85.05498937886692	0	0
